<svg width="355" height="85" viewBox="0 0 355 85" fill="none" xmlns="http://www.w3.org/2000/svg">
<rect width="355" height="85" fill="#E5E5E5"/>
<rect width="355" height="84" transform="translate(0 0.0392532)" fill="#F7F5EB"/>
<path d="M42.3037 70.0393L27.3975 27.1135H27.1162C27.5147 33.4885 27.7139 39.465 27.7139 45.0432V70.0393H20.085V18.6408H31.9326L46.2061 59.5275H46.417L61.1123 18.6408H72.9951V70.0393H64.9092V44.6213C64.9092 42.0666 64.9678 38.7385 65.085 34.6369C65.2256 30.5353 65.3428 28.051 65.4365 27.1838H65.1553L49.7217 70.0393H42.3037Z" fill="#FFBA60"/>
<path d="M64.4853 70.0393V18.6408H72.8877V62.8322H94.6494V70.0393H64.4853Z" fill="#FFBA60"/>
<path d="M126.606 70.0393L125.446 64.5549H125.165C123.243 66.9689 121.321 68.6096 119.399 69.4768C117.501 70.3205 115.122 70.7424 112.263 70.7424C108.442 70.7424 105.442 69.758 103.263 67.7893C101.106 65.8205 100.028 63.0197 100.028 59.3869C100.028 51.6057 106.251 47.5275 118.696 47.1525L125.235 46.9416V44.551C125.235 41.5275 124.579 39.301 123.267 37.8713C121.978 36.4182 119.903 35.6916 117.044 35.6916C113.833 35.6916 110.2 36.676 106.146 38.6447L104.353 34.1799C106.251 33.1486 108.325 32.34 110.575 31.7541C112.849 31.1682 115.122 30.8752 117.396 30.8752C121.989 30.8752 125.388 31.8947 127.591 33.9338C129.817 35.9728 130.931 39.2424 130.931 43.7424V70.0393H126.606ZM113.423 65.926C117.056 65.926 119.903 64.9299 121.966 62.9377C124.052 60.9455 125.095 58.1564 125.095 54.5705V51.09L119.259 51.3361C114.618 51.5002 111.267 52.2268 109.204 53.5158C107.165 54.7814 106.146 56.7619 106.146 59.4572C106.146 61.5666 106.778 63.1721 108.044 64.2736C109.333 65.3752 111.126 65.926 113.423 65.926ZM167.845 59.5275C167.845 63.1135 166.509 65.8791 163.837 67.8244C161.165 69.7697 157.415 70.7424 152.587 70.7424C147.478 70.7424 143.493 69.9338 140.634 68.3166V62.9025C142.485 63.84 144.466 64.5783 146.575 65.1174C148.708 65.6564 150.759 65.926 152.728 65.926C155.774 65.926 158.118 65.4455 159.759 64.4846C161.399 63.5002 162.22 62.0119 162.22 60.0197C162.22 58.5197 161.563 57.2424 160.251 56.1877C158.962 55.1096 156.431 53.8439 152.657 52.3908C149.071 51.0549 146.517 49.8947 144.993 48.9103C143.493 47.9025 142.368 46.7658 141.618 45.5002C140.892 44.2346 140.528 42.7228 140.528 40.965C140.528 37.8244 141.806 35.3518 144.36 33.5471C146.915 31.7189 150.419 30.8049 154.872 30.8049C159.021 30.8049 163.075 31.6486 167.036 33.3361L164.962 38.0822C161.095 36.4885 157.591 35.6916 154.45 35.6916C151.685 35.6916 149.599 36.1252 148.192 36.9924C146.786 37.8596 146.083 39.0549 146.083 40.5783C146.083 41.6096 146.341 42.4885 146.856 43.215C147.396 43.9416 148.251 44.633 149.423 45.2893C150.595 45.9455 152.845 46.8947 156.173 48.1369C160.743 49.801 163.825 51.4768 165.419 53.1643C167.036 54.8518 167.845 56.9728 167.845 59.5275ZM192.771 70.7424C187.192 70.7424 182.868 69.0314 179.798 65.6096C176.751 62.1643 175.228 57.301 175.228 51.0197C175.228 44.5744 176.774 39.5939 179.868 36.0783C182.985 32.5627 187.415 30.8049 193.157 30.8049C195.009 30.8049 196.86 31.0041 198.712 31.4025C200.563 31.801 202.017 32.2697 203.071 32.8088L201.278 37.7658C199.989 37.2502 198.583 36.8283 197.06 36.5002C195.536 36.1486 194.188 35.9728 193.017 35.9728C185.188 35.9728 181.274 40.965 181.274 50.9494C181.274 55.6838 182.224 59.3166 184.122 61.8478C186.044 64.3791 188.88 65.6447 192.63 65.6447C195.841 65.6447 199.134 64.9533 202.509 63.5705V68.7385C199.931 70.0744 196.685 70.7424 192.771 70.7424ZM235.38 70.0393L234.22 64.5549H233.938C232.017 66.9689 230.095 68.6096 228.173 69.4768C226.274 70.3205 223.896 70.7424 221.036 70.7424C217.216 70.7424 214.216 69.758 212.036 67.7893C209.88 65.8205 208.802 63.0197 208.802 59.3869C208.802 51.6057 215.024 47.5275 227.47 47.1525L234.009 46.9416V44.551C234.009 41.5275 233.353 39.301 232.04 37.8713C230.751 36.4182 228.677 35.6916 225.817 35.6916C222.606 35.6916 218.974 36.676 214.919 38.6447L213.126 34.1799C215.024 33.1486 217.099 32.34 219.349 31.7541C221.622 31.1682 223.896 30.8752 226.169 30.8752C230.763 30.8752 234.161 31.8947 236.364 33.9338C238.591 35.9728 239.704 39.2424 239.704 43.7424V70.0393H235.38ZM222.196 65.926C225.829 65.926 228.677 64.9299 230.739 62.9377C232.825 60.9455 233.868 58.1564 233.868 54.5705V51.09L228.032 51.3361C223.392 51.5002 220.04 52.2268 217.978 53.5158C215.938 54.7814 214.919 56.7619 214.919 59.4572C214.919 61.5666 215.552 63.1721 216.817 64.2736C218.106 65.3752 219.899 65.926 222.196 65.926ZM278.13 70.0393V45.1135C278.13 41.9728 277.415 39.6291 275.985 38.0822C274.556 36.5353 272.317 35.7619 269.271 35.7619C265.239 35.7619 262.286 36.8518 260.411 39.0314C258.536 41.2111 257.599 44.8088 257.599 49.8244V70.0393H251.763V31.508H256.509L257.458 36.7814H257.739C258.935 34.883 260.61 33.4182 262.767 32.3869C264.923 31.3322 267.325 30.8049 269.974 30.8049C274.614 30.8049 278.106 31.9299 280.45 34.1799C282.794 36.4064 283.966 39.9807 283.966 44.9025V70.0393H278.13ZM329.247 50.7385C329.247 57.0197 327.665 61.9299 324.501 65.4689C321.337 68.9846 316.966 70.7424 311.388 70.7424C307.942 70.7424 304.884 69.9338 302.212 68.3166C299.54 66.6994 297.478 64.3791 296.024 61.3557C294.571 58.3322 293.845 54.7932 293.845 50.7385C293.845 44.4572 295.415 39.5705 298.556 36.0783C301.696 32.5627 306.056 30.8049 311.634 30.8049C317.024 30.8049 321.302 32.5978 324.466 36.1838C327.653 39.7697 329.247 44.6213 329.247 50.7385ZM299.892 50.7385C299.892 55.6603 300.876 59.4103 302.845 61.9885C304.813 64.5666 307.708 65.8557 311.528 65.8557C315.349 65.8557 318.243 64.5783 320.212 62.0236C322.204 59.4455 323.2 55.6838 323.2 50.7385C323.2 45.84 322.204 42.1252 320.212 39.5939C318.243 37.0393 315.325 35.7619 311.458 35.7619C307.638 35.7619 304.755 37.0158 302.81 39.5236C300.864 42.0314 299.892 45.7697 299.892 50.7385Z" fill="#26333A"/>
</svg>
