<svg width="355" height="85" viewBox="0 0 355 85" fill="none" xmlns="http://www.w3.org/2000/svg">
<rect width="355" height="85" fill="#E5E5E5"/>
<rect width="355" height="84" transform="translate(0 0.0392532)" fill="#F7F5EB"/>
<path d="M42.3037 70.0393L27.3975 27.1135H27.1162C27.5147 33.4885 27.7139 39.465 27.7139 45.0432V70.0393H20.085V18.6408H31.9326L46.2061 59.5275H46.417L61.1123 18.6408H72.9951V70.0393H64.9092V44.6213C64.9092 42.0666 64.9678 38.7385 65.085 34.6369C65.2256 30.5353 65.3428 28.051 65.4365 27.1838H65.1553L49.7217 70.0393H42.3037Z" fill="#26333A"/>
<path d="M64.4853 70.0393V18.6408H72.8877V62.8322H94.6494V70.0393H64.4853ZM126.958 70.0393L125.306 64.6252H125.024C123.149 66.9924 121.263 68.6096 119.364 69.4768C117.466 70.3205 115.028 70.7424 112.052 70.7424C108.231 70.7424 105.243 69.7111 103.087 67.6486C100.954 65.5861 99.8877 62.6682 99.8877 58.8947C99.8877 54.8869 101.376 51.8635 104.353 49.8244C107.329 47.7853 111.864 46.6721 117.958 46.4846L124.673 46.2736V44.1994C124.673 41.715 124.087 39.8635 122.915 38.6447C121.767 37.4025 119.974 36.7814 117.536 36.7814C115.544 36.7814 113.634 37.0744 111.806 37.6603C109.978 38.2463 108.22 38.9377 106.532 39.7346L103.86 33.8283C105.97 32.7268 108.278 31.8947 110.786 31.3322C113.294 30.7463 115.661 30.4533 117.888 30.4533C122.833 30.4533 126.56 31.5314 129.067 33.6877C131.599 35.8439 132.864 39.2307 132.864 43.8478V70.0393H126.958ZM114.653 64.4143C117.653 64.4143 120.056 63.5822 121.86 61.9182C123.688 60.2307 124.603 57.8752 124.603 54.8518V51.4768L119.61 51.6877C115.72 51.8283 112.884 52.4846 111.103 53.6564C109.345 54.8049 108.466 56.5744 108.466 58.965C108.466 60.6994 108.981 62.0471 110.013 63.008C111.044 63.9455 112.591 64.4143 114.653 64.4143ZM170.517 58.965C170.517 62.7619 169.134 65.6799 166.368 67.7189C163.603 69.7346 159.642 70.7424 154.485 70.7424C149.306 70.7424 145.146 69.9572 142.005 68.3869V61.2502C146.575 63.3596 150.829 64.4143 154.767 64.4143C159.853 64.4143 162.396 62.8791 162.396 59.8088C162.396 58.8244 162.114 58.0041 161.552 57.3478C160.989 56.6916 160.063 56.0119 158.774 55.3088C157.485 54.6057 155.692 53.8088 153.396 52.9182C148.919 51.1838 145.884 49.4494 144.29 47.715C142.72 45.9807 141.935 43.7307 141.935 40.965C141.935 37.6369 143.271 35.0588 145.942 33.2307C148.638 31.3791 152.294 30.4533 156.911 30.4533C161.481 30.4533 165.806 31.3791 169.884 33.2307L167.212 39.4533C163.017 37.7189 159.489 36.8518 156.63 36.8518C152.271 36.8518 150.091 38.0939 150.091 40.5783C150.091 41.7971 150.653 42.8283 151.778 43.6721C152.927 44.5158 155.411 45.676 159.231 47.1525C162.442 48.3947 164.774 49.5314 166.228 50.5627C167.681 51.5939 168.759 52.7893 169.462 54.1486C170.165 55.4846 170.517 57.09 170.517 58.965ZM195.161 70.7424C189.278 70.7424 184.802 69.0314 181.731 65.6096C178.685 62.1643 177.161 57.2307 177.161 50.8088C177.161 44.2697 178.755 39.2424 181.942 35.7268C185.153 32.2111 189.782 30.4533 195.829 30.4533C199.931 30.4533 203.622 31.215 206.903 32.7385L204.407 39.383C200.915 38.0236 198.032 37.3439 195.759 37.3439C189.032 37.3439 185.669 41.8088 185.669 50.7385C185.669 55.0978 186.501 58.3791 188.165 60.5822C189.853 62.7619 192.313 63.8518 195.548 63.8518C199.228 63.8518 202.708 62.9377 205.989 61.1096V68.3166C204.513 69.1838 202.931 69.8049 201.243 70.1799C199.579 70.5549 197.552 70.7424 195.161 70.7424ZM239.458 70.0393L237.806 64.6252H237.524C235.649 66.9924 233.763 68.6096 231.864 69.4768C229.966 70.3205 227.528 70.7424 224.552 70.7424C220.731 70.7424 217.743 69.7111 215.587 67.6486C213.454 65.5861 212.388 62.6682 212.388 58.8947C212.388 54.8869 213.876 51.8635 216.853 49.8244C219.829 47.7853 224.364 46.6721 230.458 46.4846L237.173 46.2736V44.1994C237.173 41.715 236.587 39.8635 235.415 38.6447C234.267 37.4025 232.474 36.7814 230.036 36.7814C228.044 36.7814 226.134 37.0744 224.306 37.6603C222.478 38.2463 220.72 38.9377 219.032 39.7346L216.36 33.8283C218.47 32.7268 220.778 31.8947 223.286 31.3322C225.794 30.7463 228.161 30.4533 230.388 30.4533C235.333 30.4533 239.06 31.5314 241.567 33.6877C244.099 35.8439 245.364 39.2307 245.364 43.8478V70.0393H239.458ZM227.153 64.4143C230.153 64.4143 232.556 63.5822 234.36 61.9182C236.188 60.2307 237.103 57.8752 237.103 54.8518V51.4768L232.11 51.6877C228.22 51.8283 225.384 52.4846 223.603 53.6564C221.845 54.8049 220.966 56.5744 220.966 58.965C220.966 60.6994 221.481 62.0471 222.513 63.008C223.544 63.9455 225.091 64.4143 227.153 64.4143ZM291.103 70.0393H282.806V46.133C282.806 43.133 282.196 40.8947 280.978 39.4182C279.782 37.9416 277.872 37.2033 275.247 37.2033C271.755 37.2033 269.2 38.2346 267.583 40.2971C265.966 42.3596 265.157 45.8166 265.157 50.6682V70.0393H256.896V31.1564H263.364L264.524 36.2541H264.946C266.118 34.4025 267.782 32.9728 269.938 31.965C272.095 30.9572 274.485 30.4533 277.11 30.4533C286.438 30.4533 291.103 35.1994 291.103 44.6916V70.0393ZM337.087 50.5275C337.087 56.8791 335.458 61.8361 332.2 65.3986C328.942 68.9611 324.407 70.7424 318.595 70.7424C314.962 70.7424 311.751 69.9221 308.962 68.2814C306.173 66.6408 304.028 64.2853 302.528 61.215C301.028 58.1447 300.278 54.5822 300.278 50.5275C300.278 44.2228 301.896 39.301 305.13 35.7619C308.364 32.2228 312.923 30.4533 318.806 30.4533C324.431 30.4533 328.884 32.2697 332.165 35.9025C335.446 39.5119 337.087 44.3869 337.087 50.5275ZM308.786 50.5275C308.786 59.5041 312.103 63.9924 318.735 63.9924C325.298 63.9924 328.579 59.5041 328.579 50.5275C328.579 41.6447 325.274 37.2033 318.665 37.2033C315.196 37.2033 312.677 38.3518 311.106 40.6486C309.56 42.9455 308.786 46.2385 308.786 50.5275Z" fill="#26333A"/>
</svg>
